<svg width="59" height="10" viewBox="0 0 59 10" fill="none" xmlns="http://www.w3.org/2000/svg">
<path d="M4.49821 9.096C3.69021 9.096 2.99821 8.924 2.42221 8.58C1.84621 8.228 1.40221 7.728 1.09021 7.08C0.786211 6.432 0.634211 5.66 0.634211 4.764C0.634211 3.876 0.786211 3.108 1.09021 2.46C1.40221 1.812 1.84621 1.316 2.42221 0.972C2.99821 0.619999 3.69021 0.443999 4.49821 0.443999C5.08221 0.443999 5.61821 0.539999 6.10621 0.732C6.60221 0.916 7.02221 1.188 7.36621 1.548L7.04221 2.16C6.66621 1.792 6.27421 1.528 5.86621 1.368C5.46621 1.208 5.01421 1.128 4.51021 1.128C3.51821 1.128 2.75421 1.448 2.21821 2.088C1.69021 2.72 1.42621 3.612 1.42621 4.764C1.42621 5.924 1.69021 6.824 2.21821 7.464C2.75421 8.096 3.51821 8.412 4.51021 8.412C5.01421 8.412 5.46621 8.332 5.86621 8.172C6.27421 8.012 6.66621 7.748 7.04221 7.38L7.36621 7.992C7.02221 8.352 6.60221 8.628 6.10621 8.82C5.61821 9.004 5.08221 9.096 4.49821 9.096ZM9.00927 9V0.539999H12.2373C13.1013 0.539999 13.7693 0.732 14.2413 1.116C14.7213 1.5 14.9613 2.048 14.9613 2.76C14.9613 3.224 14.8373 3.62 14.5893 3.948C14.3413 4.276 14.0053 4.516 13.5813 4.668C14.0693 4.788 14.4533 5.024 14.7333 5.376C15.0133 5.72 15.1533 6.16 15.1533 6.696C15.1533 7.448 14.9133 8.02 14.4333 8.412C13.9533 8.804 13.2733 9 12.3933 9H9.00927ZM9.72927 4.404H12.1533C12.8253 4.404 13.3373 4.268 13.6893 3.996C14.0413 3.716 14.2173 3.312 14.2173 2.784C14.2173 2.256 14.0413 1.856 13.6893 1.584C13.3373 1.304 12.8253 1.164 12.1533 1.164H9.72927V4.404ZM9.72927 8.376H12.3333C13.7173 8.376 14.4093 7.82 14.4093 6.708C14.4093 6.132 14.2373 5.708 13.8933 5.436C13.5493 5.164 13.0293 5.028 12.3333 5.028H9.72927V8.376ZM17.0601 9V0.539999H22.1481V1.176H17.7921V4.404H21.9081V5.04H17.7921V9H17.0601ZM26.881 9.096C26.073 9.096 25.381 8.924 24.805 8.58C24.229 8.228 23.785 7.728 23.473 7.08C23.169 6.432 23.017 5.66 23.017 4.764C23.017 3.876 23.169 3.108 23.473 2.46C23.785 1.812 24.229 1.316 24.805 0.972C25.381 0.619999 26.073 0.443999 26.881 0.443999C27.465 0.443999 28.001 0.539999 28.489 0.732C28.985 0.916 29.405 1.188 29.749 1.548L29.425 2.16C29.049 1.792 28.657 1.528 28.249 1.368C27.849 1.208 27.397 1.128 26.893 1.128C25.901 1.128 25.137 1.448 24.601 2.088C24.073 2.72 23.809 3.612 23.809 4.764C23.809 5.924 24.073 6.824 24.601 7.464C25.137 8.096 25.901 8.412 26.893 8.412C27.397 8.412 27.849 8.332 28.249 8.172C28.657 8.012 29.049 7.748 29.425 7.38L29.749 7.992C29.405 8.352 28.985 8.628 28.489 8.82C28.001 9.004 27.465 9.096 26.881 9.096ZM34.1038 4.2V3.18H35.1238V4.2H34.1038ZM34.1038 9V7.968H35.1238V9H34.1038ZM43.2805 9.096C42.2005 9.096 41.3805 8.808 40.8205 8.232C40.2605 7.648 39.9805 6.804 39.9805 5.7V0.539999H40.7125V5.64C40.7125 7.496 41.5685 8.424 43.2805 8.424C44.9925 8.424 45.8485 7.496 45.8485 5.64V0.539999H46.5805V5.7C46.5805 6.804 46.3005 7.648 45.7405 8.232C45.1805 8.808 44.3605 9.096 43.2805 9.096ZM47.8869 9.708L47.2869 9.528L50.3469 0.0239997L50.9589 0.204L47.8869 9.708ZM50.8152 9L54.4992 0.539999H55.1592L58.8312 9H58.0632L57.0912 6.744H52.5552L51.5952 9H50.8152ZM54.8112 1.452L52.8312 6.108H56.8152L54.8352 1.452H54.8112Z" fill="white"/>
</svg>
