<svg width="10" height="18" viewBox="0 0 10 18" fill="none" xmlns="http://www.w3.org/2000/svg">
<path fill-rule="evenodd" clip-rule="evenodd" d="M9.79342 8.26465C9.90503 8.37626 9.96084 8.5046 9.96084 8.64969C9.96084 8.79478 9.90503 8.92313 9.79342 9.03474L1.99208 16.8361C1.88048 16.9477 1.75213 17.0035 1.60704 17.0035C1.46195 17.0035 1.3336 16.9477 1.22199 16.8361L0.38494 15.999C0.273333 15.8874 0.217529 15.7591 0.217529 15.614C0.217529 15.4689 0.273333 15.3405 0.38494 15.2289L6.96418 8.64969L0.38494 2.07045C0.273333 1.95885 0.217529 1.8305 0.217529 1.68541C0.217529 1.54032 0.273333 1.41197 0.38494 1.30036L1.22199 0.463309C1.3336 0.351702 1.46195 0.295898 1.60704 0.295898C1.75213 0.295898 1.88048 0.351702 1.99208 0.463309L9.79342 8.26465Z" fill="white"/>
</svg>
