<svg width="25" height="27" viewBox="0 0 25 27" fill="none" xmlns="http://www.w3.org/2000/svg">
<path fill-rule="evenodd" clip-rule="evenodd" d="M24.7151 12.2033V14.3461C24.7151 14.9377 24.5337 15.4427 24.171 15.8612C23.8083 16.2797 23.3367 16.489 22.7564 16.489H10.9707L15.8758 21.4109C16.2999 21.8127 16.512 22.3149 16.512 22.9176C16.512 23.5203 16.2999 24.0225 15.8758 24.4243L14.6202 25.6966C14.2073 26.1095 13.705 26.316 13.1135 26.316C12.5332 26.316 12.0254 26.1095 11.5901 25.6966L0.691686 14.7814C0.278739 14.3685 0.0722656 13.8662 0.0722656 13.2747C0.0722656 12.6943 0.278739 12.1865 0.691686 11.7513L11.5901 0.869559C12.0142 0.445452 12.522 0.233398 13.1135 0.233398C13.6939 0.233398 14.1961 0.445452 14.6202 0.869559L15.8758 2.1084C16.2999 2.53251 16.512 3.04032 16.512 3.63184C16.512 4.22336 16.2999 4.73117 15.8758 5.15528L10.9707 10.0604H22.7564C23.3367 10.0604 23.8083 10.2697 24.171 10.6882C24.5337 11.1067 24.7151 11.6117 24.7151 12.2033V12.2033Z" fill="white"/>
</svg>
