<svg width="51" height="51" viewBox="0 0 51 51" fill="none" xmlns="http://www.w3.org/2000/svg">
<rect x="0.45" y="0.45" width="50.1" height="50.1" rx="25.05" fill="url(#paint0_linear_1307_11064)" fill-opacity="0.19"/>
<rect x="0.45" y="0.45" width="50.1" height="50.1" rx="25.05" stroke="white" stroke-width="0.9"/>
<path d="M22.9375 18.5625C22.9375 17.6177 23.3128 16.7115 23.9809 16.0434C24.649 15.3753 25.5552 15 26.5 15C27.4448 15 28.351 15.3753 29.0191 16.0434C29.6872 16.7115 30.0625 17.6177 30.0625 18.5625M22.9375 18.5625H30.0625M22.9375 18.5625H19.375M30.0625 18.5625H33.625M19.375 18.5625H17M19.375 18.5625V31.625C19.375 32.2549 19.6252 32.859 20.0706 33.3044C20.516 33.7498 21.1201 34 21.75 34H31.25C31.8799 34 32.484 33.7498 32.9294 33.3044C33.3748 32.859 33.625 32.2549 33.625 31.625V18.5625M33.625 18.5625H36" stroke="white" stroke-width="2" stroke-linecap="round" stroke-linejoin="round"/>
<defs>
<linearGradient id="paint0_linear_1307_11064" x1="-1.5" y1="-3.48784" x2="78.3439" y2="34.7153" gradientUnits="userSpaceOnUse">
<stop stop-color="white"/>
<stop offset="0.575687" stop-color="#EAEAEA" stop-opacity="0.424313"/>
<stop offset="1" stop-color="#DFD6D6" stop-opacity="0"/>
</linearGradient>
</defs>
</svg>
