<svg width="23" height="23" viewBox="0 0 23 23" fill="none" xmlns="http://www.w3.org/2000/svg">
<path d="M10.1839 18.9C12.2279 18.8996 14.213 18.2162 15.8232 16.9588L20.8855 22.0142L22.5139 20.3881L17.4515 15.3327C18.7113 13.7246 19.396 11.7418 19.3965 9.7C19.3965 4.62735 15.2635 0.5 10.1839 0.5C5.10422 0.5 0.971191 4.62735 0.971191 9.7C0.971191 14.7726 5.10422 18.9 10.1839 18.9ZM10.1839 2.8C13.9944 2.8 17.0934 5.89465 17.0934 9.7C17.0934 13.5054 13.9944 16.6 10.1839 16.6C6.37327 16.6 3.27436 13.5054 3.27436 9.7C3.27436 5.89465 6.37327 2.8 10.1839 2.8Z" fill="white"/>
</svg>
