<svg width="20" height="20" viewBox="0 0 20 20" fill="none" xmlns="http://www.w3.org/2000/svg">
<path fill-rule="evenodd" clip-rule="evenodd" d="M6.77349 9.5987C6.79149 9.6147 6.80849 9.6297 6.82549 9.6477C7.90449 10.7537 8.49949 12.2187 8.49949 13.7737V17.7577L10.7355 16.5397C10.9115 16.4437 11.0205 16.2557 11.0205 16.0487V13.7617C11.0205 12.2127 11.6095 10.7527 12.6785 9.6527L17.5155 4.5077C17.8285 4.1747 18.0005 3.7377 18.0005 3.2767V2.3407C18.0005 1.8767 17.6345 1.4997 17.1865 1.4997H2.31549C1.86649 1.4997 1.50049 1.8767 1.50049 2.3407V3.2767C1.50049 3.7377 1.67249 4.1747 1.98549 4.5067L6.77349 9.5987ZM8.14649 19.5007C7.94449 19.5007 7.74449 19.4467 7.56249 19.3387C7.21049 19.1287 6.99949 18.7577 6.99949 18.3457V13.7737C6.99949 12.6387 6.57649 11.5697 5.80549 10.7507C5.78249 10.7317 5.75949 10.7107 5.73949 10.6887L0.893488 5.5357C0.317488 4.9237 0.000488281 4.1207 0.000488281 3.2767V2.3407C0.000488281 1.0497 1.03949 -0.000301361 2.31549 -0.000301361H17.1865C18.4615 -0.000301361 19.5005 1.0497 19.5005 2.3407V3.2767C19.5005 4.1197 19.1835 4.9217 18.6095 5.5347L13.7625 10.6887C12.9595 11.5167 12.5205 12.6057 12.5205 13.7617V16.0487C12.5205 16.8047 12.1115 17.4967 11.4535 17.8567L8.69249 19.3607C8.52049 19.4537 8.33349 19.5007 8.14649 19.5007Z" fill="#C8C7C7"/>
</svg>
