<svg width="20" height="21" viewBox="0 0 20 21" fill="none" xmlns="http://www.w3.org/2000/svg">
<path fill-rule="evenodd" clip-rule="evenodd" d="M10.3542 0.000404358C11.0702 0.000404358 11.7662 0.294404 12.2652 0.805404C12.7632 1.3194 13.0382 2.0244 13.0172 2.7394C13.0192 2.9004 13.0722 3.0864 13.1682 3.2494C13.3272 3.5194 13.5782 3.7094 13.8762 3.7874C14.1742 3.8614 14.4862 3.8214 14.7512 3.6644C16.0312 2.9334 17.6602 3.3714 18.3912 4.6414L19.0142 5.7204C19.0302 5.7494 19.0442 5.7774 19.0562 5.8064C19.7182 7.0574 19.2762 8.6324 18.0462 9.3514C17.8672 9.4544 17.7222 9.5984 17.6222 9.7724C17.4672 10.0414 17.4242 10.3614 17.5022 10.6554C17.5822 10.9554 17.7732 11.2044 18.0422 11.3584C18.6492 11.7074 19.1022 12.2954 19.2832 12.9744C19.4642 13.6524 19.3652 14.3884 19.0122 14.9954L18.3482 16.1014C17.6172 17.3574 15.9882 17.7924 14.7212 17.0604C14.5522 16.9634 14.3572 16.9104 14.1632 16.9054H14.1572C13.8682 16.9054 13.5712 17.0284 13.3552 17.2434C13.1362 17.4624 13.0162 17.7544 13.0182 18.0644C13.0112 19.5334 11.8162 20.7214 10.3542 20.7214H9.10124C7.63224 20.7214 6.43723 19.5274 6.43723 18.0584C6.43523 17.8774 6.38323 17.6894 6.28623 17.5264C6.12923 17.2524 5.87523 17.0564 5.58223 16.9784C5.29123 16.9004 4.97223 16.9434 4.71023 17.0954C4.08223 17.4454 3.34323 17.5304 2.66723 17.3404C1.99223 17.1494 1.40923 16.6854 1.06723 16.0704L0.442234 14.9934C-0.288766 13.7254 0.146234 12.1004 1.41223 11.3684C1.77123 11.1614 1.99423 10.7754 1.99423 10.3614C1.99423 9.9474 1.77123 9.56041 1.41223 9.35341C0.145234 8.61741 -0.288766 6.9884 0.441234 5.7204L1.11923 4.60741C1.84023 3.3534 3.47023 2.9114 4.74123 3.6414C4.91423 3.7444 5.10223 3.7964 5.29323 3.7984C5.91623 3.7984 6.43723 3.2844 6.44723 2.6524C6.44323 1.9554 6.71823 1.2864 7.21923 0.781404C7.72223 0.277404 8.39023 0.000404358 9.10124 0.000404358H10.3542ZM10.3542 1.5004H9.10124C8.79123 1.5004 8.50123 1.6214 8.28223 1.8394C8.06423 2.0584 7.94523 2.3494 7.94723 2.6594C7.92623 4.1214 6.73123 5.2984 5.28423 5.2984C4.82023 5.2934 4.37323 5.1684 3.98523 4.9364C3.44023 4.6264 2.72823 4.8174 2.40923 5.3724L1.73223 6.4854C1.42223 7.0234 1.61223 7.73441 2.16423 8.0554C2.98323 8.5294 3.49423 9.4134 3.49423 10.3614C3.49423 11.3094 2.98323 12.1924 2.16223 12.6674C1.61323 12.9854 1.42323 13.6924 1.74123 14.2424L2.37223 15.3304C2.52823 15.6114 2.78323 15.8144 3.07823 15.8974C3.37223 15.9794 3.69623 15.9444 3.96623 15.7944C4.36323 15.5614 4.82523 15.4404 5.28923 15.4404C5.51823 15.4404 5.74723 15.4694 5.97123 15.5294C6.64723 15.7114 7.23423 16.1634 7.58223 16.7704C7.80823 17.1514 7.93323 17.5964 7.93723 18.0504C7.93723 18.7004 8.45924 19.2214 9.10124 19.2214H10.3542C10.9932 19.2214 11.5152 18.7034 11.5182 18.0644C11.5142 17.3584 11.7902 16.6874 12.2952 16.1824C12.7932 15.6844 13.4892 15.3854 14.1852 15.4054C14.6412 15.4164 15.0802 15.5394 15.4672 15.7594C16.0242 16.0784 16.7352 15.8884 17.0572 15.3384L17.7212 14.2314C17.8692 13.9764 17.9122 13.6564 17.8332 13.3614C17.7552 13.0664 17.5592 12.8104 17.2952 12.6594C16.6772 12.3034 16.2362 11.7294 16.0532 11.0414C15.8722 10.3664 15.9712 9.62941 16.3242 9.0224C16.5542 8.62241 16.8912 8.28541 17.2952 8.0534C17.8372 7.73641 18.0272 7.0274 17.7122 6.4754C17.6992 6.4534 17.6872 6.4304 17.6772 6.4064L17.0912 5.3904C16.7722 4.8354 16.0622 4.64441 15.5052 4.96141C14.9032 5.31741 14.1872 5.4194 13.4992 5.2384C12.8122 5.0604 12.2362 4.6254 11.8772 4.0114C11.6472 3.6274 11.5222 3.1804 11.5182 2.7254C11.5272 2.3834 11.4072 2.0764 11.1892 1.8514C10.9722 1.6274 10.6672 1.5004 10.3542 1.5004ZM9.73213 6.9745C11.5991 6.9745 13.1181 8.4945 13.1181 10.3615C13.1181 12.2285 11.5991 13.7465 9.73213 13.7465C7.86513 13.7465 6.34613 12.2285 6.34613 10.3615C6.34613 8.4945 7.86513 6.9745 9.73213 6.9745ZM9.73213 8.4745C8.69213 8.4745 7.84613 9.3215 7.84613 10.3615C7.84613 11.4015 8.69213 12.2465 9.73213 12.2465C10.7721 12.2465 11.6181 11.4015 11.6181 10.3615C11.6181 9.3215 10.7721 8.4745 9.73213 8.4745Z" fill="white"/>
</svg>
