<svg width="18" height="23" viewBox="0 0 18 23" fill="none" xmlns="http://www.w3.org/2000/svg">
<path d="M17 22H15V20C15 18.3431 13.6569 17 12 17H6C4.34315 17 3 18.3431 3 20V22H1V20C1 17.2386 3.23858 15 6 15H12C14.7614 15 17 17.2386 17 20V22ZM9 13C5.68629 13 3 10.3137 3 7C3 3.68629 5.68629 1 9 1C12.3137 1 15 3.68629 15 7C15 10.3137 12.3137 13 9 13ZM9 11C11.2091 11 13 9.20914 13 7C13 4.79086 11.2091 3 9 3C6.79086 3 5 4.79086 5 7C5 9.20914 6.79086 11 9 11Z" fill="white" stroke="white" stroke-width="0.8"/>
</svg>
